<mxfile host="app.diagrams.net" modified="2022-06-01T03:17:43.895Z" agent="5.0 (Windows NT 10.0; Win64; x64) AppleWebKit/537.36 (KHTML, like Gecko) Chrome/102.0.5005.61 Safari/537.36" etag="48d3PQ7Bl6ejFUF3AoJx" version="18.1.3" type="github">
  <diagram id="kHwue4zSDv6rkRo7yAcD" name="Page-1">
    <mxGraphModel dx="462" dy="761" grid="1" gridSize="10" guides="1" tooltips="1" connect="1" arrows="1" fold="1" page="1" pageScale="1" pageWidth="850" pageHeight="1100" math="0" shadow="0">
      <root>
        <mxCell id="0" />
        <mxCell id="1" parent="0" />
        <mxCell id="huiboyjthSdT7lwmt8Ed-3" value="" style="edgeStyle=orthogonalEdgeStyle;rounded=0;orthogonalLoop=1;jettySize=auto;html=1;" edge="1" parent="1" source="huiboyjthSdT7lwmt8Ed-1" target="huiboyjthSdT7lwmt8Ed-2">
          <mxGeometry relative="1" as="geometry" />
        </mxCell>
        <mxCell id="huiboyjthSdT7lwmt8Ed-1" value="Artificial Intelligence" style="rounded=1;whiteSpace=wrap;html=1;treeFolding=1;" vertex="1" parent="1">
          <mxGeometry x="365" y="50" width="120" height="60" as="geometry" />
        </mxCell>
        <mxCell id="huiboyjthSdT7lwmt8Ed-5" value="" style="edgeStyle=orthogonalEdgeStyle;rounded=0;orthogonalLoop=1;jettySize=auto;html=1;" edge="1" parent="1" source="huiboyjthSdT7lwmt8Ed-2" target="huiboyjthSdT7lwmt8Ed-4">
          <mxGeometry relative="1" as="geometry" />
        </mxCell>
        <mxCell id="huiboyjthSdT7lwmt8Ed-12" style="edgeStyle=orthogonalEdgeStyle;rounded=0;orthogonalLoop=1;jettySize=auto;html=1;" edge="1" parent="1" source="huiboyjthSdT7lwmt8Ed-2" target="huiboyjthSdT7lwmt8Ed-11">
          <mxGeometry relative="1" as="geometry" />
        </mxCell>
        <mxCell id="huiboyjthSdT7lwmt8Ed-14" style="edgeStyle=orthogonalEdgeStyle;rounded=0;orthogonalLoop=1;jettySize=auto;html=1;" edge="1" parent="1" source="huiboyjthSdT7lwmt8Ed-2" target="huiboyjthSdT7lwmt8Ed-13">
          <mxGeometry relative="1" as="geometry" />
        </mxCell>
        <mxCell id="huiboyjthSdT7lwmt8Ed-16" style="edgeStyle=orthogonalEdgeStyle;rounded=0;orthogonalLoop=1;jettySize=auto;html=1;" edge="1" parent="1" source="huiboyjthSdT7lwmt8Ed-2" target="huiboyjthSdT7lwmt8Ed-15">
          <mxGeometry relative="1" as="geometry" />
        </mxCell>
        <mxCell id="huiboyjthSdT7lwmt8Ed-2" value="Machine Learning" style="rounded=1;whiteSpace=wrap;html=1;treeFolding=1;" vertex="1" parent="1">
          <mxGeometry x="365" y="150" width="120" height="60" as="geometry" />
        </mxCell>
        <mxCell id="huiboyjthSdT7lwmt8Ed-19" style="edgeStyle=orthogonalEdgeStyle;rounded=0;orthogonalLoop=1;jettySize=auto;html=1;" edge="1" parent="1" source="huiboyjthSdT7lwmt8Ed-4" target="huiboyjthSdT7lwmt8Ed-18">
          <mxGeometry relative="1" as="geometry" />
        </mxCell>
        <mxCell id="huiboyjthSdT7lwmt8Ed-21" style="edgeStyle=orthogonalEdgeStyle;rounded=0;orthogonalLoop=1;jettySize=auto;html=1;" edge="1" parent="1" source="huiboyjthSdT7lwmt8Ed-4" target="huiboyjthSdT7lwmt8Ed-20">
          <mxGeometry relative="1" as="geometry" />
        </mxCell>
        <mxCell id="huiboyjthSdT7lwmt8Ed-4" value="Supervised Learning" style="whiteSpace=wrap;html=1;rounded=1;treeFolding=1;" vertex="1" parent="1">
          <mxGeometry x="220" y="280" width="120" height="60" as="geometry" />
        </mxCell>
        <mxCell id="huiboyjthSdT7lwmt8Ed-23" style="edgeStyle=orthogonalEdgeStyle;rounded=0;orthogonalLoop=1;jettySize=auto;html=1;" edge="1" parent="1" source="huiboyjthSdT7lwmt8Ed-11" target="huiboyjthSdT7lwmt8Ed-22">
          <mxGeometry relative="1" as="geometry" />
        </mxCell>
        <mxCell id="huiboyjthSdT7lwmt8Ed-11" value="Unsupervised Learning" style="rounded=1;whiteSpace=wrap;html=1;treeFolding=1;" vertex="1" parent="1">
          <mxGeometry x="365" y="280" width="120" height="60" as="geometry" />
        </mxCell>
        <mxCell id="huiboyjthSdT7lwmt8Ed-13" value="Semi-Supervised Learning" style="rounded=1;whiteSpace=wrap;html=1;treeFolding=1;" vertex="1" parent="1">
          <mxGeometry x="510" y="280" width="120" height="60" as="geometry" />
        </mxCell>
        <mxCell id="huiboyjthSdT7lwmt8Ed-15" value="Reinforcement Learning" style="rounded=1;whiteSpace=wrap;html=1;treeFolding=1;" vertex="1" parent="1">
          <mxGeometry x="660" y="280" width="120" height="60" as="geometry" />
        </mxCell>
        <mxCell id="huiboyjthSdT7lwmt8Ed-18" value="Classification" style="whiteSpace=wrap;html=1;rounded=1;treeFolding=1;" vertex="1" parent="1">
          <mxGeometry x="90" y="380" width="120" height="60" as="geometry" />
        </mxCell>
        <mxCell id="huiboyjthSdT7lwmt8Ed-20" value="Regression" style="whiteSpace=wrap;html=1;rounded=1;treeFolding=1;" vertex="1" parent="1">
          <mxGeometry x="220" y="380" width="120" height="60" as="geometry" />
        </mxCell>
        <mxCell id="huiboyjthSdT7lwmt8Ed-22" value="Clustering" style="rounded=1;whiteSpace=wrap;html=1;treeFolding=1;" vertex="1" parent="1">
          <mxGeometry x="365" y="380" width="120" height="60" as="geometry" />
        </mxCell>
      </root>
    </mxGraphModel>
  </diagram>
</mxfile>
